0
SECTION
2
HEADER
9
$INSUNITS
70
5
9
$ACADVER
1
AC1014
9
$HANDSEED
5
FFFF
0
ENDSEC
0
SECTION
2
TABLES
0
TABLE
2
VPORT
5
8
100
AcDbSymbolTable
0
ENDTAB
0
TABLE
2
LTYPE
5
5
100
AcDbSymbolTable
0
LTYPE
5
14
100
AcDbSymbolTableRecord
100
AcDbLinetypeTableRecord
2
BYBLOCK
70
0
0
LTYPE
5
15
100
AcDbSymbolTableRecord
100
AcDbLinetypeTableRecord
2
BYLAYER
70
0
0
ENDTAB
0
TABLE
2
LAYER
5
2
100
AcDbSymbolTable
70
2
0
LAYER
5
50
100
AcDbSymbolTableRecord
100
AcDbLayerTableRecord
2
0
70
0
6
CONTINUOUS
0
ENDTAB
0
TABLE
2
STYLE
5
3
100
AcDbSymbolTable
70
1
0
STYLE
5
11
100
AcDbSymbolTableRecord
100
AcDbTextStyleTableRecord
2
STANDARD
70
0
0
ENDTAB
0
TABLE
2
VIEW
5
6
100
AcDbSymbolTable
70
0
0
ENDTAB
0
TABLE
2
UCS
5
7
100
AcDbSymbolTable
70
0
0
ENDTAB
0
TABLE
2
APPID
5
9
100
AcDbSymbolTable
70
2
0
APPID
5
12
100
AcDbSymbolTableRecord
100
AcDbRegAppTableRecord
2
ACAD
70
0
0
ENDTAB
0
TABLE
2
DIMSTYLE
5
A
100
AcDbSymbolTable
70
1
0
ENDTAB
0
TABLE
2
BLOCK_RECORD
5
1
100
AcDbSymbolTable
70
1
0
BLOCK_RECORD
5
1F
100
AcDbSymbolTableRecord
100
AcDbBlockTableRecord
2
*MODEL_SPACE
0
BLOCK_RECORD
5
1B
100
AcDbSymbolTableRecord
100
AcDbBlockTableRecord
2
*PAPER_SPACE
0
ENDTAB
0
ENDSEC
0
SECTION
2
BLOCKS
0
BLOCK
5
20
100
AcDbEntity
100
AcDbBlockBegin
2
*MODEL_SPACE
0
ENDBLK
5
21
100
AcDbEntity
100
AcDbBlockEnd
0
BLOCK
5
1C
100
AcDbEntity
100
AcDbBlockBegin
2
*PAPER_SPACE
0
ENDBLK
5
1D
100
AcDbEntity
100
AcDbBlockEnd
0
ENDSEC
0
SECTION
2
ENTITIES
0
CIRCLE
5
100
100
AcDbEntity
8
0
100
AcDbCircle
10
0.51241470302131553
20
0.52877117073258206
30
0
40
0.15000000000000002
210
0
220
-0
230
1
0
CIRCLE
5
101
100
AcDbEntity
8
0
100
AcDbCircle
10
-9.4817
20
0.52879999999999905
30
0
40
0.15000000000000036
210
0
220
-0
230
1
0
CIRCLE
5
102
100
AcDbEntity
8
0
100
AcDbCircle
10
0.51241470302131553
20
-9.4471711707325809
30
0
40
0.15000000000000002
210
0
220
-0
230
1
0
CIRCLE
5
103
100
AcDbEntity
8
0
100
AcDbCircle
10
-9.6052350275035376
20
-9.2485592895237616
30
0
40
0.15000000000000036
210
0
220
-0
230
1
0
LWPOLYLINE
5
104
100
AcDbEntity
8
0
100
AcDbPolyline
90
4
70
1
43
0.0
10
0
20
-7.5184000000000006
10
-1.3999999999999999
20
-7.5184000000000006
10
-1.3999999999999999
20
-8.9184000000000001
10
0
20
-8.9184000000000001
0
LWPOLYLINE
5
105
100
AcDbEntity
8
0
100
AcDbPolyline
90
4
70
1
43
0.0
10
0
20
-3.7592000000000003
10
-1.3999999999999999
20
-3.7592000000000003
10
-1.3999999999999999
20
-5.1592000000000002
10
0
20
-5.1592000000000002
0
CIRCLE
5
106
100
AcDbEntity
8
0
100
AcDbCircle
10
-5.9704999999999995
20
-0.88900000000000001
30
0
40
0.1875
210
0
220
-0
230
1
0
LWPOLYLINE
5
107
100
AcDbEntity
8
0
100
AcDbPolyline
90
4
70
1
43
0.0
10
-3.7845999999999997
20
-7.5184000000000006
10
-5.1845999999999997
20
-7.5184000000000006
10
-5.1845999999999997
20
-8.9184000000000001
10
-3.7845999999999997
20
-8.9184000000000001
0
LWPOLYLINE
5
108
100
AcDbEntity
8
0
100
AcDbPolyline
90
4
70
1
43
0.0
10
-1.8922999999999999
20
-7.5184000000000006
10
-3.2923
20
-7.5184000000000006
10
-3.2923
20
-8.9184000000000001
10
-1.8922999999999999
20
-8.9184000000000001
0
CIRCLE
5
109
100
AcDbEntity
8
0
100
AcDbCircle
10
-6.8086999999999991
20
-0.88900000000000001
30
0
40
0.1875
210
0
220
-0
230
1
0
LWPOLYLINE
5
110
100
AcDbEntity
8
0
100
AcDbPolyline
90
4
70
1
43
0.0
10
-1.8922999999999999
20
-5.6388000000000007
10
-3.2923
20
-5.6388000000000007
10
-3.2923
20
-7.0388000000000002
10
-1.8922999999999999
20
-7.0388000000000002
0
LWPOLYLINE
5
111
100
AcDbEntity
8
0
100
AcDbPolyline
90
4
70
1
43
0.0
10
-3.7845999999999997
20
-5.6388000000000007
10
-5.1845999999999997
20
-5.6388000000000007
10
-5.1845999999999997
20
-7.0388000000000002
10
-3.7845999999999997
20
-7.0388000000000002
0
LWPOLYLINE
5
112
100
AcDbEntity
8
0
100
AcDbPolyline
90
4
70
1
43
0.0
10
-8.9692000000000007
20
0
10
-8.9692000000000007
20
-1.3999999999999999
10
-7.5692000000000004
20
-1.3999999999999999
10
-7.5692000000000004
20
0
0
LWPOLYLINE
5
113
100
AcDbEntity
8
0
100
AcDbPolyline
90
4
70
1
43
0.0
10
-8.9692000000000007
20
-1.8796000000000002
10
-8.9692000000000007
20
-3.2796000000000003
10
-7.5692000000000004
20
-3.2796000000000003
10
-7.5692000000000004
20
-1.8796000000000002
0
LWPOLYLINE
5
114
100
AcDbEntity
8
0
100
AcDbPolyline
90
4
70
1
43
0.0
10
0
20
-5.6388000000000007
10
-1.3999999999999999
20
-5.6388000000000007
10
-1.3999999999999999
20
-7.0388000000000002
10
0
20
-7.0388000000000002
0
LWPOLYLINE
5
115
100
AcDbEntity
8
0
100
AcDbPolyline
90
4
70
1
43
0.0
10
-3.7845999999999997
20
-3.7592000000000003
10
-5.1845999999999997
20
-3.7592000000000003
10
-5.1845999999999997
20
-5.1592000000000002
10
-3.7845999999999997
20
-5.1592000000000002
0
LWPOLYLINE
5
116
100
AcDbEntity
8
0
100
AcDbPolyline
90
4
70
1
43
0.0
10
-1.8922999999999999
20
-3.7592000000000003
10
-3.2923
20
-3.7592000000000003
10
-3.2923
20
-5.1592000000000002
10
-1.8922999999999999
20
-5.1592000000000002
0
LWPOLYLINE
5
117
100
AcDbEntity
8
0
100
AcDbPolyline
90
4
70
1
43
0.0
10
-3.7845999999999997
20
-1.8796000000000002
10
-5.1845999999999997
20
-1.8796000000000002
10
-5.1845999999999997
20
-3.2796000000000003
10
-3.7845999999999997
20
-3.2796000000000003
0
LWPOLYLINE
5
118
100
AcDbEntity
8
0
100
AcDbPolyline
90
4
70
1
43
0.0
10
-1.8922999999999999
20
-1.8796000000000002
10
-3.2923
20
-1.8796000000000002
10
-3.2923
20
-3.2796000000000003
10
-1.8922999999999999
20
-3.2796000000000003
0
LWPOLYLINE
5
119
100
AcDbEntity
8
0
100
AcDbPolyline
90
4
70
1
43
0.0
10
0
20
-1.8796000000000002
10
-1.3999999999999999
20
-1.8796000000000002
10
-1.3999999999999999
20
-3.2796000000000003
10
0
20
-3.2796000000000003
0
LWPOLYLINE
5
120
100
AcDbEntity
8
0
100
AcDbPolyline
90
4
70
1
43
0.0
10
-3.7845999999999997
20
0
10
-5.1845999999999997
20
0
10
-5.1845999999999997
20
-1.3999999999999999
10
-3.7845999999999997
20
-1.3999999999999999
0
LWPOLYLINE
5
121
100
AcDbEntity
8
0
100
AcDbPolyline
90
4
70
1
43
0.0
10
-1.8922999999999999
20
0
10
-3.2923
20
0
10
-3.2923
20
-1.3999999999999999
10
-1.8922999999999999
20
-1.3999999999999999
0
LWPOLYLINE
5
122
100
AcDbEntity
8
0
100
AcDbPolyline
90
4
70
1
43
0.0
10
0
20
0
10
-1.3999999999999999
20
0
10
-1.3999999999999999
20
-1.3999999999999999
10
0
20
-1.3999999999999999
0
LWPOLYLINE
5
123
100
AcDbEntity
8
0
100
AcDbPolyline
90
8
70
1
43
0.0
10
1.0153999999999987
20
-9.2092000000000009
42
-0.4142135623730962
10
0.26539999999999964
20
-9.9592000000000009
10
-9.2346000000000004
20
-9.9592000000000009
42
-0.41421356237309648
10
-9.9846000000000004
20
-9.2092000000000009
10
-9.9846000000000004
20
0.29079999999999895
42
-0.41421356237309642
10
-9.2346000000000004
20
1.0407999999999991
10
0.26539999999999947
20
1.0407999999999993
42
-0.41421356237309515
10
1.0153999999999992
20
0.29079999999999906
0
ENDSEC
0
SECTION
2
OBJECTS
0
DICTIONARY
5
C
100
AcDbDictionary
3
ACAD_GROUP
350
D
3
ACAD_MLINESTYLE
350
17
0
DICTIONARY
5
D
100
AcDbDictionary
0
DICTIONARY
5
1A
330
C
100
AcDbDictionary
0
DICTIONARY
5
17
100
AcDbDictionary
0
ENDSEC
0
EOF
